<?xml version="1.0" standalone="no"?>
<!DOCTYPE svg PUBLIC "-//W3C//DTD SVG 20010904//EN"
 "http://www.w3.org/TR/2001/REC-SVG-20010904/DTD/svg10.dtd">
<svg version="1.0" xmlns="http://www.w3.org/2000/svg"
 width="700.000000pt" height="700.000000pt" viewBox="0 0 700.000000 700.000000"
 preserveAspectRatio="xMidYMid meet">
<metadata>
Created by potrace 1.11, written by Peter Selinger 2001-2013
</metadata>
<g transform="translate(0.000000,700.000000) scale(0.100000,-0.100000)"
fill="#000000" stroke="none">
<path d="M460 6894 c0 -6 69 -161 160 -359 18 -38 52 -115 77 -170 47 -104 68
-151 123 -270 18 -38 106 -232 195 -430 90 -198 182 -400 204 -448 23 -49 41
-90 41 -92 0 -2 17 -41 39 -87 52 -111 63 -134 261 -573 95 -209 182 -402 195
-430 12 -27 33 -72 45 -100 12 -27 38 -84 57 -125 19 -41 53 -115 75 -165 22
-49 52 -117 68 -150 15 -33 38 -82 50 -110 13 -27 37 -81 55 -120 52 -113 82
-179 170 -375 46 -102 99 -219 118 -260 19 -41 44 -97 57 -125 12 -27 259
-570 547 -1205 289 -635 529 -1165 534 -1178 8 -20 15 -23 55 -20 l46 3 520
1210 c285 666 522 1217 525 1225 8 20 181 424 205 480 11 25 24 54 28 65 4 11
17 40 28 65 11 25 32 74 47 110 15 36 35 83 45 105 22 50 76 177 330 770 110
259 207 484 214 500 8 17 107 248 221 515 114 267 218 508 230 535 13 28 67
154 120 280 54 127 109 255 122 285 13 30 28 64 33 75 46 108 75 176 87 205 8
19 18 44 23 55 37 81 130 301 130 308 0 4 -72 6 -161 5 l-161 -3 -29 -70 c-16
-38 -37 -85 -45 -103 -20 -42 -107 -246 -149 -347 -28 -69 -47 -112 -95 -220
-5 -11 -28 -65 -51 -120 -22 -55 -49 -118 -59 -140 -10 -22 -37 -85 -60 -140
-23 -55 -50 -118 -60 -140 -10 -22 -32 -74 -50 -115 -18 -41 -40 -93 -50 -115
-10 -22 -30 -69 -45 -105 -15 -36 -38 -89 -51 -118 -13 -29 -24 -55 -24 -58 0
-3 -11 -29 -24 -57 -28 -64 -73 -167 -361 -842 -125 -291 -233 -543 -240 -560
-20 -45 -926 -2157 -935 -2180 -8 -22 -24 10 -297 595 -20 41 -64 135 -99 208
-35 74 -64 136 -64 137 0 2 -36 79 -80 171 -44 91 -80 168 -80 169 0 2 -31 70
-70 150 -38 80 -70 148 -70 151 0 2 207 4 459 4 358 0 460 -3 463 -12 2 -7 3
-188 3 -403 l0 -390 -247 -3 c-226 -2 -270 -7 -238 -27 11 -7 511 -7 518 0 2
2 3 108 3 234 -2 215 -1 231 16 232 10 0 62 2 116 3 84 2 101 6 119 23 l21 21
-126 -2 c-69 -2 -132 1 -139 5 -9 6 -12 83 -13 341 l0 334 -38 64 c-26 44 -40
80 -43 114 -9 89 -34 155 -85 222 l-49 65 0 178 c0 131 3 181 13 187 9 7 982
11 1040 5 4 -1 7 -32 7 -69 0 -73 4 -84 26 -75 11 4 14 28 14 104 l0 99 -109
220 c-60 120 -112 228 -116 240 -6 20 -3 20 213 20 204 0 220 1 218 18 -3 16
-22 17 -232 17 l-229 0 -146 289 c-80 160 -149 291 -155 293 -13 4 -22 -12
-171 -309 -125 -250 -136 -268 -161 -269 -29 -1 -465 1 -781 4 -227 2 -208
-10 -206 139 1 88 3 98 25 116 l23 19 1 420 1 421 -80 85 c-104 110 -160 191
-227 330 -53 110 -128 337 -128 387 0 6 -9 10 -20 10 -14 0 -20 -7 -20 -23 0
-65 -116 -389 -157 -438 -7 -8 -13 -20 -13 -26 0 -13 -89 -141 -131 -188 -19
-21 -55 -61 -80 -89 l-47 -50 3 -385 c3 -472 3 -481 13 -480 4 1 18 1 30 0 24
-1 24 -2 22 -108 -3 -145 -3 -143 21 -143 19 0 20 5 19 108 -1 59 -1 114 -1
123 1 13 40 16 329 18 181 1 341 -1 356 -5 l27 -6 -2 -832 c-3 -752 -2 -833
13 -856 12 -18 17 -55 20 -132 2 -60 2 -108 1 -108 -3 0 -66 131 -185 385 -39
83 -87 186 -109 231 -21 45 -57 121 -79 170 -23 49 -51 106 -61 126 l-19 38
54 -1 c29 -1 58 1 64 5 6 3 11 64 11 149 2 134 0 145 -21 177 -30 44 -60 49
-93 16 -26 -26 -26 -27 -23 -171 2 -80 2 -145 0 -145 -2 0 -25 46 -51 103 -27
56 -72 152 -101 212 -29 61 -65 138 -81 173 -69 150 -90 193 -137 292 -46 97
-332 705 -407 865 -18 39 -54 115 -80 170 -26 55 -60 127 -75 160 -15 33 -51
110 -80 170 -29 61 -65 137 -80 170 -15 33 -52 112 -82 175 -30 63 -74 157
-98 208 l-43 92 -429 0 c-235 0 -428 -3 -428 -6z m2274 -381 c66 -205 187
-406 329 -545 30 -29 39 -46 42 -77 2 -26 -2 -44 -11 -52 -14 -12 -652 -20
-757 -9 l-52 5 -3 43 c-3 41 0 47 56 106 108 116 183 224 243 353 36 77 78
186 85 222 14 68 36 53 68 -46z m218 -736 c76 -2 141 -6 144 -9 3 -4 7 -79 8
-168 2 -115 -1 -166 -10 -178 -11 -15 -49 -17 -407 -17 -218 0 -399 3 -402 7
-4 4 -7 72 -7 150 0 214 0 208 21 216 20 7 393 7 653 -1z m-44 -417 c195 -3
203 -6 196 -67 -3 -20 -7 -39 -10 -42 -3 -3 -184 -6 -402 -7 -388 -1 -397 -1
-408 19 -13 24 -9 78 8 88 6 4 79 8 162 8 82 1 151 2 152 4 1 1 31 1 66 1 34
-1 141 -3 236 -4z m1768 -551 c140 -281 252 -514 249 -518 -9 -9 -1009 -11
-1024 -2 -8 6 55 141 217 467 127 253 239 481 251 506 17 39 27 51 49 57 1 1
117 -229 258 -510z m-1577 382 c9 -14 6 -56 -5 -73 -9 -14 -788 -10 -802 4
-15 15 -16 60 -1 75 8 8 126 11 406 10 326 -2 395 -4 402 -16z m914 -420 c44
-1 57 -4 57 -16 0 -8 -52 -119 -115 -246 l-116 -231 -3 -175 c-2 -138 -6 -177
-17 -184 -20 -12 -24 -11 -45 12 -16 17 -19 40 -21 157 -2 75 -5 151 -8 168
-23 134 -240 168 -329 52 -23 -32 -25 -40 -28 -198 l-3 -165 -55 -37 c-30 -21
-64 -45 -76 -53 -29 -21 -131 -26 -147 -7 -9 11 -12 111 -12 401 0 212 2 419
3 459 l4 73 426 -5 c235 -2 453 -5 485 -5z m-1283 -505 c0 -61 -3 -121 -6
-133 -7 -25 -38 -31 -50 -11 -4 7 -8 68 -9 136 -1 114 1 125 20 138 35 25 45
-5 45 -130z m936 47 c32 -21 48 -49 32 -59 -19 -12 -237 -12 -254 1 -13 9 -13
14 6 38 42 53 150 64 216 20z m37 -122 c16 -16 14 -230 -2 -241 -17 -10 -252
-7 -268 3 -9 6 -13 42 -13 122 0 111 1 115 23 120 65 14 244 12 260 -4z m65
-305 c118 -60 190 -176 206 -333 3 -23 17 -63 32 -88 14 -25 23 -49 19 -53 -9
-9 -901 -9 -911 0 -4 4 7 34 23 65 18 34 33 81 37 113 11 107 35 159 105 228
84 83 112 92 289 92 141 0 156 -2 200 -24z m-578 -101 c0 -9 -8 -30 -17 -48
-9 -18 -25 -74 -35 -126 -18 -96 -23 -110 -35 -97 -9 9 -10 246 -1 269 10 23
88 25 88 2z m89 -429 c12 -8 9 -14 -16 -35 -52 -44 -73 -119 -49 -173 13 -29
3 -53 -24 -54 -50 -1 -55 7 -57 113 -2 138 1 151 40 155 54 5 91 3 106 -6z
m229 5 c12 -3 -4 -31 -26 -48 -25 -18 -30 -19 -48 -6 -10 8 -26 19 -34 24 -13
8 -12 11 5 25 17 13 53 15 103 5z m245 -10 c4 -4 -8 -20 -27 -35 -37 -28 -44
-27 -90 9 -15 12 -17 17 -7 29 10 11 26 14 64 10 29 -3 56 -9 60 -13z m266 5
c17 -2 27 -11 31 -27 7 -29 4 -218 -4 -226 -10 -10 -101 -13 -116 -3 -12 8
-12 13 1 42 9 18 15 48 13 66 -3 38 -38 98 -65 112 -24 13 -25 37 -1 42 16 3
92 0 141 -6z m-619 -75 c14 -10 29 -34 34 -55 31 -122 -140 -179 -189 -63 -17
40 -3 83 39 120 35 32 71 31 116 -2z m216 8 c23 -14 37 -33 46 -61 10 -35 9
-45 -8 -77 -36 -68 -125 -72 -165 -7 -23 38 -24 67 -4 106 15 29 57 59 84 60
7 0 29 -9 47 -21z m229 6 c51 -25 71 -78 52 -138 -21 -64 -109 -80 -159 -29
-61 60 -20 173 65 181 5 1 24 -6 42 -14z"/>
<path d="M2356 5704 c-3 -9 -6 -65 -6 -125 0 -102 1 -109 20 -109 19 0 20 7
20 119 0 93 -3 120 -14 124 -8 3 -17 -1 -20 -9z"/>
<path d="M2679 5717 c-7 -12 -4 -235 3 -244 21 -27 28 2 28 117 0 95 -3 119
-15 124 -8 3 -16 4 -16 3z"/>
<path d="M3005 5712 c-6 -4 -9 -50 -9 -107 2 -134 2 -135 18 -135 18 0 22 21
20 115 -3 146 -3 146 -29 127z"/>
<path d="M2673 5007 c-12 -5 -27 -23 -32 -40 -15 -41 -14 -244 0 -253 20 -12
100 -11 113 2 9 8 13 48 13 126 1 95 -2 117 -18 139 -22 31 -46 40 -76 26z
m46 -59 c5 -13 9 -57 10 -98 2 -87 -14 -123 -46 -104 -15 10 -18 24 -17 102 1
51 4 98 8 107 8 22 35 18 45 -7z"/>
<path d="M4352 4104 c-66 -27 -72 -62 -71 -434 0 -246 2 -296 14 -308 4 -4 58
-7 121 -7 95 0 114 2 115 15 4 42 5 636 1 656 -2 12 -16 36 -31 53 -32 35 -98
47 -149 25z m107 -40 c44 -32 48 -60 46 -366 -1 -159 -4 -291 -8 -294 -10 -11
-151 -13 -163 -3 -16 13 -19 583 -3 626 17 50 83 68 128 37z"/>
</g>
</svg>
